<?xml version="1.0" encoding="UTF-8" standalone="no"?>
<svg width="550px" height="160px" viewBox="0 0 550 160" version="1.1" xmlns="http://www.w3.org/2000/svg" xmlns:xlink="http://www.w3.org/1999/xlink" xmlns:sketch="http://www.bohemiancoding.com/sketch/ns">
    <!-- Generator: Sketch 3.3.2 (12043) - http://www.bohemiancoding.com/sketch -->
    <title>HACKTX</title>
    <desc>Created with Sketch.</desc>
    <defs></defs>
    <g id="Page-1" stroke="none" stroke-width="1" fill="none" fill-rule="evenodd" sketch:type="MSPage">
        <g id="Desktop-HD" sketch:type="MSArtboardGroup" transform="translate(-523.000000, -353.000000)">
            <g id="website-mock" sketch:type="MSLayerGroup" transform="translate(-138.000000, -2.000000)">
                <g id="hero-section" transform="translate(136.000000, 0.000000)" sketch:type="MSShapeGroup">
                    <g id="HACKTX" transform="translate(525.000000, 355.383877)">
                        <g id="Page-1">
                            <g id="HACKTX">
                                <g id="X" transform="translate(457.101727, 1.689060)">
                                    <path d="M1.6890595,8.4452975 L10.134357,0 L34.4145873,71.7850288 L25.9692898,80.2303263 L1.6890595,8.4452975 L1.6890595,8.4452975 Z" id="Rectangle-20" fill="#EC1C24"></path>
                                    <path d="M68.4069098,147.792706 L92.8982726,147.792706 L84.452975,156.238004 L59.9616123,156.238004 L68.4069098,147.792706 L68.4069098,147.792706 Z" id="Rectangle-19" fill="#A11318"></path>
                                    <path d="M25.9692898,80.2303263 L34.4145873,71.7850288 L8.4452975,147.792706 L0,156.238004 L25.9692898,80.2303263 L25.9692898,80.2303263 Z" id="Rectangle-16" fill="#EC1C24"></path>
                                    <path d="M61.2284069,8.4452975 L69.6737044,0 L51.7274472,54.4721689 L43.2821497,62.9174664 L61.2284069,8.4452975 L61.2284069,8.4452975 Z" id="Rectangle-16-Copy" fill="#EC1C24"></path>
                                    <path d="M8.4452975,147.792706 L30.1919386,147.792706 L21.7466411,156.238004 L0,156.238004 L8.4452975,147.792706 L8.4452975,147.792706 Z" id="Rectangle-18" fill="#A11318"></path>
                                    <path d="M40.9596929,97.7543186 L49.4049904,89.3090211 L68.4069098,147.792706 L59.9616123,156.238004 L40.9596929,97.7543186 L40.9596929,97.7543186 Z" id="Rectangle-21" fill="#EC1C24"></path>
                                    <path d="M69.6737044,0 L51.7274472,54.4721689 L34.2034549,0 L10.134357,0 L34.4145873,71.7850288 L8.4452975,147.792706 L30.1919386,147.792706 L49.4049904,89.3090211 L68.4069098,147.792706 L92.8982726,147.792706 L66.9289827,71.7850288 L91.2092131,0 L69.6737044,0 L69.6737044,0 Z" id="Path" fill="#FFFFFF"></path>
                                </g>
                                <g id="T" transform="translate(372.015355, 1.689060)">
                                    <path d="M0,8.4452975 L8.4452975,0 L8.4452975,21.1132438 L0,29.5585413 L0,8.4452975 L0,8.4452975 Z" id="Rectangle-12" fill="#EC1C24"></path>
                                    <path d="M8.4452975,21.1132438 L80.2303263,21.1132438 L71.7850288,29.5585413 L0,29.5585413 L8.4452975,21.1132438 L8.4452975,21.1132438 Z" id="Rectangle-12-Copy" fill="#A11318"></path>
                                    <path d="M32.7255278,147.792706 L55.950096,147.792706 L47.5047985,156.238004 L24.2802303,156.238004 L32.7255278,147.792706 L32.7255278,147.792706 Z" id="Rectangle-12-Copy-2" fill="#A11318"></path>
                                    <path d="M24.2802303,29.5585413 L32.7255278,21.1132438 L32.7255278,147.792706 L24.2802303,156.238004 L24.2802303,29.5585413 L24.2802303,29.5585413 Z" id="Rectangle-12-Copy-3" fill="#EC1C24"></path>
                                    <path d="M8.4452975,21.1132438 L32.7255278,21.1132438 L32.7255278,147.792706 L55.950096,147.792706 L55.950096,21.1132438 L80.2303263,21.1132438 L80.2303263,0 L8.4452975,0 L8.4452975,21.1132438 L8.4452975,21.1132438 Z" id="Path" fill="#FFFFFF"></path>
                                </g>
                                <g id="K" transform="translate(282.917466, 1.689060)">
                                    <path d="M30.403071,97.3320537 L38.8483685,88.8867562 L61.4395393,147.792706 L52.9942418,156.238004 L30.403071,97.3320537 L30.403071,97.3320537 Z" id="Rectangle-26" fill="#EC1C24"></path>
                                    <path d="M53.6276392,8.4452975 L62.0729367,0 L31.6698656,64.3953935 L23.2245681,72.840691 L53.6276392,8.4452975 L53.6276392,8.4452975 Z" id="Rectangle-25" fill="#EC1C24"></path>
                                    <path d="M8.4452975,147.792706 L31.6698656,147.792706 L23.2245681,156.238004 L0,156.238004 L8.4452975,147.792706 L8.4452975,147.792706 Z" id="Rectangle-23" fill="#A11318"></path>
                                    <path d="M61.4395393,147.792706 L85.2975048,147.792706 L76.8522073,156.238004 L52.9942418,156.238004 L61.4395393,147.792706 L61.4395393,147.792706 Z" id="Rectangle-23-Copy" fill="#A11318"></path>
                                    <path d="M0,8.4452975 L8.4452975,0 L8.4452975,147.792706 L0,156.238004 L0,8.4452975 L0,8.4452975 Z" id="Rectangle-22" fill="#EC1C24"></path>
                                    <path d="M61.4395393,147.792706 L85.2975048,147.792706 L52.9942418,65.8733205 L85.2975048,0 L62.0729367,0 L31.6698656,64.3953935 L31.6698656,0 L8.4452975,0 L8.4452975,147.792706 L31.6698656,147.792706 L31.6698656,102.399232 L38.8483685,88.8867562 L61.4395393,147.792706 L61.4395393,147.792706 Z" id="Path" fill="#FFFFFF"></path>
                                </g>
                                <g id="C" transform="translate(190.863724, 0.000000)">
                                    <path d="M47.5047985,102.821497 L47.5047985,123.934741 C47.5047985,134.491363 42.8598848,138.291747 35.4702495,138.291747 C28.0806142,138.291747 23.4357006,134.491363 23.4357006,123.934741 C23.4357006,123.934741 19.496571,147.199573 42.2988743,147.199573 C65.1011775,147.199573 55.9500958,94.3761996 55.9500958,94.3761996 L47.5047985,102.821497 L47.5047985,102.821497 Z" id="Path-Copy-3" fill="#EC1C24"></path>
                                    <path d="M23.4357006,44.1266795 C23.4357006,33.5700576 28.0806142,29.5585413 35.4702495,29.5585413 C42.8598848,29.5585413 47.5047985,33.5700576 47.5047985,44.1266795 L47.5047985,59.9616123 L55.950096,51.5163148 C55.950096,51.5163148 66.2348126,14.7393595 43.4325094,14.7393595 C20.6302061,14.7393595 23.4357006,44.1266795 23.4357006,44.1266795 L23.4357006,44.1266795 L23.4357006,44.1266795 Z" id="Path-Copy-2" fill="#EC1C24"></path>
                                    <path d="M55.950096,51.5163148 L77.9078695,51.5163148 L69.462572,59.9616123 L47.5047985,59.9616123 L55.950096,51.5163148 L55.950096,51.5163148 Z" id="Rectangle-28" fill="#A11318"></path>
                                    <path d="M0.211131632,122.456817 L0.211131632,45.6046076 C0.211131632,31.8809981 4.28842145,22.7933344 9.33204344,17.7773506 C14.3756654,12.761367 17.7773409,9.33205309 17.7773409,9.33205309 L17.7773401,122.270608 L35.4702495,138.291747 C35.4702495,138.291747 71.2163216,139.589962 68.3646936,142.261034 C64.2138871,146.424224 67.3566729,143.288642 59.9193961,150.706331 C54.1420201,156.523339 45.7458795,159.616123 34.8368522,159.616123 C12.0345504,159.616123 0.211134,146.103649 0.211132438,122.456818 L0.211131632,122.456817 L0.211131632,122.456817 Z" id="Path-Copy-7" fill="#EC1C24"></path>
                                    <path d="M15.1715647,111.671805 L35.2591179,137.959694 C35.2591179,137.959694 68.7592033,141.083953 68.153562,141.928981 C57.4007068,156.932027 45.6462286,159.613801 34.7372013,159.613801 C18.3123104,159.613801 2.48271241,152.494944 0.38167062,126.846164 C1.33607616,125.891566 15.1715647,111.671805 15.1715647,111.671805 Z" id="Path-Copy-7-Copy" fill="#A11318"></path>
                                    <path d="M55.950096,94.3761996 L55.950096,115.489443 C55.950096,126.046065 51.3051823,129.846449 43.915547,129.846449 C36.5259117,129.846449 31.8809981,126.046065 31.8809981,115.489443 L31.8809981,35.681382 C31.8809981,25.1247601 36.5259117,21.1132438 43.915547,21.1132438 C51.3051823,21.1132438 55.950096,25.1247601 55.950096,35.681382 L55.950096,51.5163148 L77.9078695,51.5163148 L77.9078695,37.159309 C77.9078695,13.512476 66.084453,0 43.2821497,0 C20.4798464,0 8.65642994,13.512476 8.65642994,37.159309 L8.65642994,114.011516 C8.65642994,137.658349 20.4798464,151.170825 43.2821497,151.170825 C66.084453,151.170825 77.9078695,137.658349 77.9078695,114.011516 L77.9078695,94.3761996 L55.950096,94.3761996 L55.950096,94.3761996 Z" id="Path" fill="#FFFFFF"></path>
                                </g>
                                <g id="A" transform="translate(92.476008, 1.689060)">
                                    <path d="M8.4452975,147.792706 L29.7696737,147.792706 L21.3243762,156.238004 L0,156.238004 L8.4452975,147.792706 L8.4452975,147.792706 Z" id="Rectangle-7" fill="#A11318"></path>
                                    <path d="M66.2955854,147.792706 L89.731286,147.792706 L81.2859885,156.238004 L57.8502879,156.238004 L66.2955854,147.792706 L66.2955854,147.792706 Z" id="Rectangle-7-Copy" fill="#A11318"></path>
                                    <path d="M39.4817658,34.6257198 L47.9270633,26.1804223 L66.5067179,147.792706 L57.9558541,156.238004 L39.4817658,34.6257198 L39.4817658,34.6257198 Z" id="Rectangle-10" fill="#EC1C24"></path>
                                    <path d="M33.78119,120.978887 L62.2840691,120.978887 L53.8387716,129.424184 L25.3358925,129.424184 L33.78119,120.978887 L33.78119,120.978887 Z" id="Rectangle-11" fill="#A11318"></path>
                                    <path d="M23.646833,8.4452975 L32.0921305,0 L8.4452975,147.792706 L0,156.238004 L23.646833,8.4452975 L23.646833,8.4452975 Z" id="Rectangle-11" fill="#EC1C24"></path>
                                    <path d="M66.084453,0 L32.0921305,0 L8.4452975,147.792706 L29.7696737,147.792706 L33.78119,120.978887 L62.2840691,120.978887 L66.2955854,147.792706 L89.731286,147.792706 L66.084453,0 L66.084453,0 Z M47.9270633,26.1804223 L59.1170825,100.921305 L36.7370441,100.921305 L47.9270633,26.1804223 L47.9270633,26.1804223 Z" id="Path" fill="#FFFFFF"></path>
                                </g>
                                <g id="H" transform="translate(0.000000, 1.689060)">
                                    <path d="M49.6161228,8.4452975 L58.0614203,0 L58.0614203,147.792706 L49.6161228,156.238004 L49.6161228,8.4452975 L49.6161228,8.4452975 Z" id="Rectangle-2-Copy" fill="#EC1C24"></path>
                                    <path d="M31.6698656,84.452975 L58.0614203,84.452975 L49.6161228,92.8982726 L23.2245681,92.8982726 L31.6698656,84.452975 L31.6698656,84.452975 Z" id="Rectangle-3-Copy-2" fill="#A11318"></path>
                                    <path d="M8.4452975,147.792706 L31.6698656,147.792706 L23.2245681,156.238004 L0,156.238004 L8.4452975,147.792706 L8.4452975,147.792706 Z" id="Rectangle-3" fill="#A11318"></path>
                                    <path d="M58.0614203,147.792706 L81.7082534,147.792706 L71.5738964,156.238004 L49.6161228,156.238004 L58.0614203,147.792706 L58.0614203,147.792706 Z" id="Rectangle-3-Copy" fill="#A11318"></path>
                                    <path d="M0,8.4452975 L8.4452975,0 L8.4452975,147.792706 L0,156.238004 L0,8.4452975 L0,8.4452975 Z" id="Rectangle-2" fill="#EC1C24"></path>
                                    <path d="M31.6698656,84.452975 L58.0614203,84.452975 L58.0614203,147.792706 L81.7082534,147.792706 L81.7082534,0 L58.0614203,0 L58.0614203,63.3397313 L31.6698656,63.3397313 L31.6698656,0 L8.4452975,0 L8.4452975,147.792706 L31.6698656,147.792706 L31.6698656,84.452975 L31.6698656,84.452975 Z" id="Path" fill="#FFFFFF"></path>
                                </g>
                            </g>
                        </g>
                    </g>
                </g>
            </g>
        </g>
    </g>
</svg>